<?xml version="1.0" encoding="utf-8"?>
<!-- Generator: Adobe Illustrator 27.5.0, SVG Export Plug-In . SVG Version: 6.00 Build 0)  -->
<svg version="1.1" id="Layer_1" xmlns="http://www.w3.org/2000/svg" xmlns:xlink="http://www.w3.org/1999/xlink" x="0px" y="0px"
	 viewBox="0 0 209.4 209.4" enable-background="new 0 0 209.4 209.4" xml:space="preserve">
<g>
	<path fill="#231F20" d="M104.7,209.4C47,209.4,0,162.4,0,104.7S47,0,104.7,0c57.7,0,104.7,47,104.7,104.7S162.4,209.4,104.7,209.4z
		 M104.7,15C55.2,15,15,55.2,15,104.7s40.2,89.7,89.7,89.7c49.5,0,89.7-40.2,89.7-89.7S154.1,15,104.7,15z"/>
</g>
<g>
	<g>
		<path fill="#231F20" d="M103.7,118.2l-18.8,29.5H63.1l29.5-43.5L64.8,61.7h23.6l17.4,29.1L123,61.7h21.7l-28.2,42l29.8,44h-23.7
			L103.7,118.2z"/>
	</g>
</g>
</svg>
